<svg width="1821" height="200" viewBox="0 0 1821 200" fill="none" xmlns="http://www.w3.org/2000/svg">
<path d="M144.458 199.816C135.787 184.22 121.396 160.366 101.287 128.256L68.9081 160.183V199.816H0C1.47594 164.22 2.21391 130.917 2.21391 99.9079C2.21391 68.8988 1.47594 35.5962 0 0H68.9081V80.6419C102.855 47.2475 127.023 20.3669 141.414 0H231.077L143.904 85.8712C156.819 103.853 171.302 123.394 187.352 144.495C203.588 165.596 218.255 184.036 231.354 199.816H144.458Z" fill="#252525"/>
<path d="M1059.77 0.000195857L1041.51 42.1101C1025.46 79.3577 1012.82 109.174 1003.6 131.559C994.372 153.945 985.886 176.697 978.137 199.816H895.392C887.828 177.064 879.433 154.587 870.209 132.385C861.169 110 848.992 81.3761 833.679 46.5138C831.096 40.6422 824.362 25.1377 813.477 0.000195857H890.411C895.945 17.7983 904.155 40.6423 915.04 68.5321C924.634 93.1191 932.383 114.403 938.286 132.385C942.161 119.725 946.773 106.238 952.124 91.9265C957.658 77.4311 960.979 68.6238 962.086 65.5045C972.787 37.4312 980.628 15.5965 985.609 0.000195857H1059.77Z" fill="#252525"/>
<path d="M1320.83 0.000195857L1315.57 7.98181C1295.83 38.4404 1278.86 65.4128 1264.65 88.899C1250.63 112.202 1238.91 133.669 1229.5 153.302V199.816H1157.28V148.624C1150.45 134.862 1142.42 120.734 1133.2 106.238C1123.97 91.5595 1110.88 71.4678 1093.9 45.9633C1080.62 26.5139 1070.47 11.1928 1063.46 0.000195857H1140.95C1146.48 11.1928 1155.52 27.7983 1168.07 49.8165C1180.61 72.2018 1189.19 87.9815 1193.81 97.1558C1200.26 83.7614 1208.93 67.3394 1219.82 47.8899C1232.55 25.1377 1241.13 9.17447 1245.56 0.000195857H1320.83Z" fill="#252525"/>
<path d="M1480.05 199.816C1471.38 184.22 1456.99 160.367 1436.88 128.257L1404.5 160.183V199.816H1335.6C1337.07 164.22 1337.81 130.917 1337.81 99.9081C1337.81 68.899 1337.07 35.5964 1335.6 0.000195857H1404.5V80.6421C1438.45 47.2477 1462.62 20.3671 1477.01 0.000195857H1566.67L1479.5 85.8714C1492.41 103.853 1506.9 123.394 1522.95 144.495C1539.18 165.596 1553.85 184.036 1566.95 199.816H1480.05Z" fill="#252525"/>
<path d="M1821 0.000195857C1819.71 31.0093 1819.06 64.3119 1819.06 99.9081C1819.06 135.504 1819.71 168.807 1821 199.816H1755.97V124.954H1654.13V199.816H1589.09C1590.57 164.22 1591.31 130.917 1591.31 99.9081C1591.31 68.899 1590.57 35.5964 1589.09 0.000195857H1654.13V74.8623H1755.97V0.000195857H1821Z" fill="#252525"/>
<path d="M580.596 0.609106C617.088 0.609106 642.486 7.11796 656.789 20.1357C671.092 32.97 678.244 51.1215 678.244 74.59C678.244 90.7246 675.402 104.476 669.717 115.843C664.032 127.028 654.038 135.828 639.735 142.245C625.431 148.479 605.718 151.596 580.596 151.596H523.382V200L345.689 199.725C448.839 189.412 457.916 113.781 457.916 100.167C457.916 69.1812 457.183 35.9036 455.716 0.334088H523.382V0.609106H580.596ZM561.341 98.5169C576.561 98.5169 587.931 97.9669 595.449 96.8668C603.151 95.5833 608.469 93.3832 611.403 90.2663C614.521 87.1493 616.079 82.5656 616.079 76.5152C616.079 70.4647 614.612 65.9726 611.678 63.0391C608.927 59.9222 603.701 57.8137 595.999 56.7136C588.481 55.6135 576.928 55.0635 561.341 55.0635H523.382V98.5169H561.341Z" fill="#252525"/>
<path d="M290.676 0.334088H393.826V100.03C393.826 128.509 370.735 151.596 342.251 151.596C313.767 151.596 290.676 128.509 290.676 100.03V0.334088Z" fill="#252525"/>
<path d="M749.488 40.2673L781.572 117.281H717.405L749.488 40.2673Z" fill="#252525"/>
<path d="M701.042 160.067H792.235L806.484 200H689.643L701.042 160.067Z" fill="#252525"/>
</svg>
