<svg width="1060.000000" height="116.000000" viewBox="0 0 1060 116" fill="none" xmlns="http://www.w3.org/2000/svg" xmlns:xlink="http://www.w3.org/1999/xlink">
	<desc>
			Created with Pixso.
	</desc>
	<defs/>
	<path id="Vector" d="M84.0886 115.894Q76.5173 102.324 58.9587 74.3887L40.1113 92.9062L40.1113 115.894L0 115.894Q1.28882 84.9248 1.28882 57.9463Q1.28882 30.9688 0 0L40.1113 0L40.1113 46.7725Q69.7517 17.7188 82.3167 0L134.51 0L83.7664 49.8057C91.2839 60.2344 99.7141 71.5684 109.057 83.8066C118.508 96.0459 127.046 106.741 134.671 115.894L84.0886 115.894ZM616.893 0L606.261 24.4238C596.917 46.0273 589.561 63.3213 584.191 76.3047C578.822 89.2881 573.882 102.484 569.371 115.894L521.206 115.894Q514.601 96.0986 506.546 76.7832C501.284 63.7998 494.196 47.1982 485.283 26.9775C483.779 23.5723 479.859 14.5801 473.523 0L518.306 0Q523.139 15.4844 532.643 39.749C538.227 54.0088 542.738 66.3535 546.174 76.7832C548.43 69.4404 551.115 61.6182 554.229 53.3174C557.451 44.9102 559.384 39.8018 560.028 37.9922C566.257 21.71 570.821 9.0459 573.721 0L616.893 0ZM768.851 0L765.791 4.62988C754.3 22.2959 744.419 37.9395 736.15 51.5615C727.988 65.0771 721.169 77.5283 715.692 88.915L715.692 115.894L673.648 115.894L673.648 86.2012C669.674 78.2197 665.002 70.0254 659.633 61.6182C654.263 53.1045 646.638 41.4512 636.758 26.6592C629.026 15.3779 623.119 6.49219 619.038 0L664.143 0C667.365 6.49219 672.627 16.123 679.93 28.8936Q690.884 48.3691 694.911 56.3506C698.67 48.582 703.718 39.0566 710.054 27.7764C717.464 14.5801 722.458 5.32129 725.035 0L768.851 0ZM861.536 115.894C856.488 106.848 848.111 93.0127 836.406 74.3887L817.558 92.9062L817.558 115.894L777.447 115.894C778.306 95.2471 778.736 75.9316 778.736 57.9463C778.736 39.9619 778.306 20.6455 777.447 0L817.558 0L817.558 46.7725C837.318 27.4033 851.387 11.8125 859.764 0L911.957 0L861.213 49.8057C868.731 60.2344 877.161 71.5684 886.504 83.8076C895.955 96.0459 904.493 106.741 912.118 115.894L861.536 115.894ZM1060 0C1059.25 17.9854 1058.87 37.3008 1058.87 57.9463C1058.87 78.5928 1059.25 97.9082 1060 115.894L1022.14 115.894L1022.14 72.4736L962.863 72.4736L962.863 115.894L925.007 115.894C925.866 95.2471 926.296 75.9316 926.296 57.9463C926.296 39.9619 925.866 20.6455 925.007 0L962.863 0L962.863 43.4199L1022.14 43.4199L1022.14 0L1060 0ZM169.202 0.193359L229.245 0.193359L229.245 58.0176C229.245 74.5352 215.804 87.9258 199.224 87.9258C182.643 87.9258 169.202 74.5352 169.202 58.0176L169.202 0.193359ZM337.963 0.353516Q369.826 0.353516 382.315 11.6787Q385.039 14.1133 387.168 16.9873Q394.804 27.2969 394.804 43.2617C394.804 52.6201 393.15 60.5957 389.841 67.1895C386.532 73.6758 380.714 78.7803 372.388 82.502C364.062 86.1182 352.587 87.9258 337.963 87.9258L304.659 87.9258L304.659 116L201.225 115.841C261.268 109.858 266.552 65.9932 266.552 58.0967Q266.552 31.1396 265.271 0.193359L304.659 0.193359L304.659 0.353516L337.963 0.353516ZM436.275 23.3555L454.951 68.0234L417.6 68.0234L436.275 23.3555ZM326.755 57.1396C335.615 57.1396 342.233 56.8203 346.61 56.1826C351.093 55.4385 354.188 54.1621 355.896 52.3545Q355.983 52.2686 356.066 52.1797L356.084 52.1611Q358.618 49.458 358.618 44.3789C358.618 40.8691 357.764 38.2637 356.057 36.5625C354.455 34.7549 351.413 33.5322 346.93 32.8936C342.553 32.2559 335.829 31.9365 326.755 31.9365L304.659 31.9365L304.659 57.1396L326.755 57.1396ZM408.075 92.8389L461.158 92.8389L469.452 116L401.44 116L408.075 92.8389Z" fill="#101010" fill-opacity="1.000000" fill-rule="evenodd"/>
</svg>
