<svg width="191" height="21" viewBox="0 0 191 21" fill="none" xmlns="http://www.w3.org/2000/svg">
<g id="Vector">
<path d="M15.1518 20.9807C14.2423 19.3431 12.7329 16.8385 10.6237 13.4669L7.22759 16.8192V20.9807H0C0.154808 17.2431 0.232212 13.7463 0.232212 10.4903C0.232212 7.23438 0.154808 3.7376 0 0H7.22759V8.4674C10.7882 4.96099 13.3231 2.13852 14.8325 0H24.2371L15.0938 9.01648C16.4483 10.9045 17.9674 12.9564 19.6509 15.172C21.3538 17.3876 22.8922 19.3238 24.2661 20.9807H15.1518Z" fill="white"/>
<path d="M111.157 2.0565e-05L109.241 4.42156C107.558 8.33256 106.232 11.4633 105.265 13.8137C104.297 16.1642 103.407 18.5532 102.594 20.9807H93.9154C93.122 18.5917 92.2415 16.2316 91.2739 13.9004C90.3257 11.55 89.0486 8.54449 87.4424 4.88395C87.1715 4.26744 86.4652 2.63946 85.3235 2.0565e-05H93.3929C93.9734 1.86882 94.8345 4.26744 95.9762 7.19587C96.9825 9.77751 97.7952 12.0124 98.4144 13.9004C98.8208 12.5711 99.3046 11.155 99.8658 9.65228C100.446 8.13027 100.795 7.2055 100.911 6.87798C102.033 3.93028 102.856 1.63763 103.378 2.0565e-05H111.157Z" fill="white"/>
<path d="M138.538 2.0565e-05L137.987 0.83809C135.916 4.03624 134.136 6.86834 132.646 9.33439C131.175 11.7812 129.946 14.0353 128.96 16.0968V20.9807H121.384V15.6055C120.668 14.1605 119.826 12.677 118.858 11.155C117.891 9.61375 116.517 7.50412 114.737 4.82615C113.343 2.78396 112.279 1.17525 111.544 2.0565e-05H119.671C120.252 1.17525 121.2 2.91882 122.516 5.23074C123.832 7.58119 124.731 9.23806 125.215 10.2014C125.892 8.79494 126.802 7.07064 127.944 5.02844C129.279 2.63946 130.179 0.963319 130.643 2.0565e-05H138.538Z" fill="white"/>
<path d="M155.239 20.9807C154.329 19.3431 152.82 16.8385 150.711 13.4669L147.315 16.8192V20.9807H140.087C140.242 17.2431 140.319 13.7463 140.319 10.4903C140.319 7.2344 140.242 3.73762 140.087 2.0565e-05H147.315V8.46742C150.875 4.96101 153.41 2.13854 154.92 2.0565e-05H164.324L155.181 9.0165C156.535 10.9046 158.055 12.9564 159.738 15.172C161.441 17.3876 162.979 19.3238 164.353 20.9807H155.239Z" fill="white"/>
<path d="M191 2.0565e-05C190.865 3.25597 190.797 6.75275 190.797 10.4903C190.797 14.228 190.865 17.7247 191 20.9807H184.179V13.1202H173.497V20.9807H166.676C166.831 17.2431 166.908 13.7463 166.908 10.4903C166.908 7.2344 166.831 3.73762 166.676 2.0565e-05H173.497V7.86054H184.179V2.0565e-05H191Z" fill="white"/>
<path d="M60.8972 0.0639562C64.7247 0.0639562 67.3887 0.747385 68.8889 2.11424C70.3892 3.46185 71.1393 5.36775 71.1393 7.83195C71.1393 9.52608 70.8412 10.9699 70.2449 12.1635C69.6487 13.3379 68.6004 14.262 67.1001 14.9358C65.5999 15.5903 63.5322 15.9176 60.8972 15.9176H54.8962V21L36.2585 20.9711C47.0776 19.8882 48.0297 11.947 48.0297 10.5175C48.0297 7.26403 47.9527 3.76988 47.7988 0.0350792H54.8962V0.0639562H60.8972ZM58.8776 10.3443C60.474 10.3443 61.6665 10.2865 62.4551 10.171C63.263 10.0363 63.8208 9.80523 64.1285 9.47796C64.4555 9.15068 64.619 8.66939 64.619 8.03409C64.619 7.39879 64.4651 6.92713 64.1573 6.6191C63.8688 6.29183 63.3207 6.07043 62.5128 5.95492C61.7243 5.83942 60.5125 5.78166 58.8776 5.78166H54.8962V10.3443H58.8776Z" fill="white"/>
<path d="M30.4883 0.0350792H41.3074V10.5031C41.3074 13.4934 38.8854 15.9176 35.8978 15.9176C32.9102 15.9176 30.4883 13.4934 30.4883 10.5031V0.0350792Z" fill="white"/>
<path d="M78.6119 4.22806L81.9771 12.3145H75.2467L78.6119 4.22806Z" fill="white"/>
<path d="M73.5305 16.807H83.0955L84.59 21H72.3349L73.5305 16.807Z" fill="white"/>
</g>
</svg>
